<?xml version="1.0" encoding="utf-8"?>
<!-- Generator: Adobe Illustrator 24.0.2, SVG Export Plug-In . SVG Version: 6.00 Build 0)  -->
<svg version="1.1" id="Calque_3" xmlns="http://www.w3.org/2000/svg" xmlns:xlink="http://www.w3.org/1999/xlink" x="0px" y="0px"
	 viewBox="0 0 800 800" style="enable-background:new 0 0 800 800;" xml:space="preserve">
<style type="text/css">
	.st0{fill:#F7EA06;}
	.st1{fill:#FF00FF;}
	.st2{fill:#2BFAFA;}
</style>
<title>calibration-shape</title>
<g>
	<path class="st0" d="M183.5,133.8c27.4,0,49.7,22.3,49.7,49.7s-22.3,49.7-49.7,49.7s-49.7-22.3-49.7-49.7S156.1,133.8,183.5,133.8
		 M183.5,33.8c-82.7,0-149.7,67-149.7,149.7s67,149.7,149.7,149.7s149.7-67,149.7-149.7S266.2,33.8,183.5,33.8L183.5,33.8z"/>
</g>
<g>
	<path class="st1" d="M183.5,566.8c27.4,0,49.7,22.3,49.7,49.7s-22.3,49.7-49.7,49.7s-49.7-22.3-49.7-49.7S156.1,566.8,183.5,566.8
		 M183.5,466.8c-82.7,0-149.7,67-149.7,149.7s67,149.7,149.7,149.7s149.7-67,149.7-149.7S266.2,466.8,183.5,466.8L183.5,466.8z"/>
</g>
<g>
	<g>
		<path class="st0" d="M616.5,566.8c27.4,0,49.7,22.3,49.7,49.7s-22.3,49.7-49.7,49.7s-49.7-22.3-49.7-49.7S589.1,566.8,616.5,566.8
			 M616.5,466.8c-82.7,0-149.7,67-149.7,149.7s67,149.7,149.7,149.7s149.7-67,149.7-149.7S699.2,466.8,616.5,466.8L616.5,466.8z"/>
	</g>
</g>
<g>
	<path class="st2" d="M616.5,133.8c27.4,0,49.7,22.3,49.7,49.7s-22.3,49.7-49.7,49.7s-49.7-22.3-49.7-49.7S589.1,133.8,616.5,133.8
		 M616.5,33.8c-82.7,0-149.7,67-149.7,149.7s67,149.7,149.7,149.7s149.7-67,149.7-149.7S699.2,33.8,616.5,33.8L616.5,33.8z"/>
</g>
</svg>
