<svg xmlns="http://www.w3.org/2000/svg" width="220" height="220" viewBox="0 0 220 220"><g transform="translate(-78 -224)"><circle cx="110" cy="110" r="110" transform="translate(78 224)" fill="#ff4040"/><text transform="translate(120 378)" fill="#202020" font-size="18" font-family="RobotoMono-Bold, Roboto Mono" font-weight="700" letter-spacing="0.2em"><tspan x="19.394" y="19">ÉCOUTER</tspan></text><g transform="translate(1.76 18.23)"><rect width="13.6" height="36.77" rx="2.489" transform="translate(133 276.712)"/><path d="M162,295.212v35.511a1.519,1.519,0,0,0,.445,1.074l15.6,15.6a1.519,1.519,0,0,0,2.593-1.074V279.613a1.519,1.519,0,0,0-2.593-1.074l-15.6,15.6A1.521,1.521,0,0,0,162,295.212Z" transform="translate(-14.393 -17.871)"/><path d="M293.8,348.11a1.511,1.511,0,0,1-1.07-2.578,71.445,71.445,0,0,0,0-100.871,1.511,1.511,0,0,1,2.141-2.134,74.468,74.468,0,0,1,0,105.139A1.506,1.506,0,0,1,293.8,348.11Z" transform="translate(-79.057)"/><path d="M271.584,347.947a1.511,1.511,0,0,1-1.071-2.577,55.62,55.62,0,0,0,0-78.491,1.511,1.511,0,1,1,2.142-2.133,58.643,58.643,0,0,1,0,82.756A1.507,1.507,0,0,1,271.584,347.947Z" transform="translate(-68.03 -11.027)"/><path d="M247.482,347.768a1.511,1.511,0,0,1-1.072-2.577,38.447,38.447,0,0,0,0-54.212,1.511,1.511,0,1,1,2.144-2.13,41.47,41.47,0,0,1,0,58.473A1.508,1.508,0,0,1,247.482,347.768Z" transform="translate(-56.068 -22.989)"/><path d="M224.887,347.6a1.511,1.511,0,0,1-1.074-2.574,22.353,22.353,0,0,0,0-31.456,1.511,1.511,0,1,1,2.148-2.126,25.375,25.375,0,0,1,0,35.707A1.507,1.507,0,0,1,224.887,347.6Z" transform="translate(-44.854 -34.203)"/></g></g></svg>