<svg xmlns="http://www.w3.org/2000/svg" width="465.551" height="210.165" viewBox="0 0 465.551 210.165"><g transform="translate(-90.982 -82.327)"><g transform="translate(-561.386 -358.96)"><path d="M0,0,35.539,35.538,0,71.077" transform="translate(761.836 519.675) rotate(-135)" fill="none" stroke="#fff" stroke-width="4"/><path d="M0,0,35.539,35.538,0,71.077" transform="translate(812.095 623.321) rotate(135)" fill="none" stroke="#fff" stroke-width="4"/><path d="M0,0,35.539,35.538,0,71.077" transform="translate(1008.755 573.062) rotate(45)" fill="none" stroke="#fff" stroke-width="4"/><path d="M0,0,35.539,35.538,0,71.077" transform="translate(958.496 469.417) rotate(-45)" fill="none" stroke="#fff" stroke-width="4"/><g transform="translate(865.489 527.07)"><line y2="38.205" transform="translate(19.103)" fill="none" stroke="#fff" stroke-width="4"/><line y2="38.205" transform="translate(38.205 19.103) rotate(90)" fill="none" stroke="#fff" stroke-width="4" opacity="0.9"/></g></g><g transform="translate(-954.682 -114.248)"><path d="M6743.118,10573l-10.747,10.746,10.747,10.748" transform="translate(-5643.61 -10281.5)" fill="none" stroke="#ff4040" stroke-width="4"/><path d="M6743.118,10573l-10.747,10.746,10.747,10.748" transform="translate(-5664.805 -10281.5)" fill="none" stroke="#ff4040" stroke-width="2" opacity="0.7"/><path d="M6743.118,10573l-10.747,10.746,10.747,10.748" transform="translate(-5686 -10281.5)" fill="none" stroke="#ff4040" stroke-width="1" opacity="0.4"/></g><g transform="translate(1602.198 490.247) rotate(180)"><path d="M6743.118,10573l-10.747,10.746,10.747,10.748" transform="translate(-5643.61 -10281.5)" fill="none" stroke="#ff4040" stroke-width="4"/><path d="M6743.118,10573l-10.747,10.746,10.747,10.748" transform="translate(-5664.805 -10281.5)" fill="none" stroke="#ff4040" stroke-width="2" opacity="0.7"/><path d="M6743.118,10573l-10.747,10.746,10.747,10.748" transform="translate(-5686 -10281.5)" fill="none" stroke="#ff4040" stroke-width="1" opacity="0.4"/></g></g></svg>