<svg xmlns="http://www.w3.org/2000/svg" width="254.001" height="262" viewBox="0 0 254.001 262">
  <g id="Groupe_84" data-name="Groupe 84" transform="translate(-207 -53)">
    <g id="Groupe_52" data-name="Groupe 52">
      <path id="Intersection_2" data-name="Intersection 2" d="M-3792,2512.17V2341.831a86.733,86.733,0,0,1,12-.831,86.77,86.77,0,0,1,11,.7V2512.3a86.77,86.77,0,0,1-11,.7A86.733,86.733,0,0,1-3792,2512.17Z" transform="translate(4114 -2239)" fill="#ff4040"/>
      <path id="Intersection_1" data-name="Intersection 1" d="M-3849.3,2422a86.759,86.759,0,0,1-.7-11,86.729,86.729,0,0,1,.831-12h170.339a86.729,86.729,0,0,1,.831,12,86.759,86.759,0,0,1-.7,11Z" transform="translate(4098 -2223)" fill="#ff4040"/>
      <circle id="Ellipse_43" data-name="Ellipse 43" cx="49" cy="49" r="49" transform="translate(285 139)" fill="#fff"/>
    </g>
    <g id="Soustraction_3" data-name="Soustraction 3" transform="translate(4073 -2693)" fill="none">
      <path d="M-3739,3008a127.942,127.942,0,0,1-25.595-2.58,126.37,126.37,0,0,1-23.839-7.4,127.013,127.013,0,0,1-21.573-11.709,127.876,127.876,0,0,1-18.8-15.508,127.891,127.891,0,0,1-15.508-18.8,127.014,127.014,0,0,1-11.709-21.573,126.377,126.377,0,0,1-7.4-23.839A127.959,127.959,0,0,1-3866,2881a127.963,127.963,0,0,1,2.58-25.6,126.382,126.382,0,0,1,7.4-23.839,127.023,127.023,0,0,1,11.709-21.573,127.914,127.914,0,0,1,15.508-18.8,127.876,127.876,0,0,1,18.8-15.508,127.013,127.013,0,0,1,21.573-11.709,126.37,126.37,0,0,1,23.839-7.4A127.959,127.959,0,0,1-3739,2754a127.963,127.963,0,0,1,25.6,2.58,126.393,126.393,0,0,1,23.839,7.4,127.034,127.034,0,0,1,21.573,11.709,127.917,127.917,0,0,1,18.8,15.508,127.914,127.914,0,0,1,15.508,18.8,127.023,127.023,0,0,1,11.709,21.573,126.393,126.393,0,0,1,7.4,23.839A127.947,127.947,0,0,1-3612,2881a127.942,127.942,0,0,1-2.58,25.595,126.37,126.37,0,0,1-7.4,23.839,127.014,127.014,0,0,1-11.709,21.573,127.891,127.891,0,0,1-15.508,18.8,127.917,127.917,0,0,1-18.8,15.508,127.025,127.025,0,0,1-21.573,11.709,126.393,126.393,0,0,1-23.839,7.4A127.947,127.947,0,0,1-3739,3008Zm0-212a85.1,85.1,0,0,0-85,85,85.1,85.1,0,0,0,85,85,85.1,85.1,0,0,0,85-85A85.1,85.1,0,0,0-3739,2796Z" stroke="none"/>
      <path d="M -3739 3007.000244140625 C -3730.450439453125 3007.000244140625 -3721.90625 3006.138916015625 -3713.605224609375 3004.4404296875 C -3705.515869140625 3002.784912109375 -3697.558837890625 3000.31494140625 -3689.955078125 2997.09912109375 C -3682.48974609375 2993.94140625 -3675.2890625 2990.032958984375 -3668.552490234375 2985.48193359375 C -3661.880126953125 2980.97412109375 -3655.605712890625 2975.79736328125 -3649.904052734375 2970.095703125 C -3644.202392578125 2964.394287109375 -3639.025634765625 2958.119873046875 -3634.517822265625 2951.447265625 C -3629.96728515625 2944.711669921875 -3626.05859375 2937.5107421875 -3622.900634765625 2930.044921875 C -3619.684814453125 2922.44140625 -3617.21484375 2914.484375 -3615.559326171875 2906.39453125 C -3613.86083984375 2898.093505859375 -3612.99951171875 2889.549560546875 -3612.99951171875 2881 C -3612.99951171875 2872.450439453125 -3613.86083984375 2863.906494140625 -3615.559326171875 2855.605224609375 C -3617.21484375 2847.515869140625 -3619.684814453125 2839.558837890625 -3622.900634765625 2831.955078125 C -3626.05810546875 2824.490234375 -3629.966552734375 2817.28955078125 -3634.517822265625 2810.552734375 C -3639.02587890625 2803.8798828125 -3644.20263671875 2797.605712890625 -3649.904052734375 2791.904052734375 C -3655.605712890625 2786.202392578125 -3661.880126953125 2781.025634765625 -3668.552490234375 2776.517822265625 C -3675.28955078125 2771.966552734375 -3682.490478515625 2768.05810546875 -3689.955078125 2764.900634765625 C -3697.558837890625 2761.684814453125 -3705.515869140625 2759.21484375 -3713.605224609375 2757.559326171875 C -3721.9072265625 2755.86083984375 -3730.451416015625 2754.99951171875 -3739 2754.99951171875 C -3747.548828125 2754.99951171875 -3756.0927734375 2755.86083984375 -3764.39453125 2757.559326171875 C -3772.484375 2759.21484375 -3780.44140625 2761.684814453125 -3788.044677734375 2764.900634765625 C -3795.510009765625 2768.058349609375 -3802.7109375 2771.966796875 -3809.447265625 2776.517822265625 C -3816.119140625 2781.02490234375 -3822.393310546875 2786.20166015625 -3828.095703125 2791.904052734375 C -3833.79736328125 2797.605712890625 -3838.97412109375 2803.880126953125 -3843.48193359375 2810.552734375 C -3848.032958984375 2817.28955078125 -3851.941650390625 2824.490234375 -3855.09912109375 2831.955078125 C -3858.31494140625 2839.55859375 -3860.784912109375 2847.515869140625 -3862.4404296875 2855.605224609375 C -3864.138916015625 2863.907470703125 -3865.000244140625 2872.451416015625 -3865.000244140625 2881 C -3865.000244140625 2889.548583984375 -3864.138916015625 2898.0927734375 -3862.4404296875 2906.39453125 C -3860.78515625 2914.4833984375 -3858.315185546875 2922.4404296875 -3855.09912109375 2930.044677734375 C -3851.941162109375 2937.5107421875 -3848.032470703125 2944.711669921875 -3843.48193359375 2951.447265625 C -3838.97412109375 2958.119873046875 -3833.79736328125 2964.39404296875 -3828.095703125 2970.095703125 C -3822.393310546875 2975.798095703125 -3816.119140625 2980.974853515625 -3809.447265625 2985.48193359375 C -3802.7109375 2990.032958984375 -3795.510009765625 2993.94140625 -3788.044921875 2997.09912109375 C -3780.44140625 3000.31494140625 -3772.484375 3002.784912109375 -3764.39453125 3004.4404296875 C -3756.09375 3006.138916015625 -3747.5498046875 3007.000244140625 -3739 3007.000244140625 M -3739 2795.000244140625 C -3691.57958984375 2795.000244140625 -3653.000244140625 2833.57958984375 -3653.000244140625 2881 C -3653.000244140625 2928.42041015625 -3691.57958984375 2966.99951171875 -3739 2966.99951171875 C -3786.42041015625 2966.99951171875 -3824.99951171875 2928.42041015625 -3824.99951171875 2881 C -3824.99951171875 2833.57958984375 -3786.42041015625 2795.000244140625 -3739 2795.000244140625 M -3739 3008.000244140625 C -3747.6162109375 3008.000244140625 -3756.2275390625 3007.13232421875 -3764.594970703125 3005.420166015625 C -3772.749267578125 3003.75146484375 -3780.77001953125 3001.26171875 -3788.434326171875 2998.02001953125 C -3795.95947265625 2994.837158203125 -3803.217529296875 2990.8974609375 -3810.007080078125 2986.310546875 C -3816.732421875 2981.767333984375 -3823.05615234375 2976.549560546875 -3828.802734375 2970.802734375 C -3834.549560546875 2965.05615234375 -3839.76708984375 2958.732421875 -3844.310546875 2952.007080078125 C -3848.897705078125 2945.21728515625 -3852.837158203125 2937.959228515625 -3856.02001953125 2930.434326171875 C -3859.261474609375 2922.770263671875 -3861.75146484375 2914.74951171875 -3863.420166015625 2906.594970703125 C -3865.132080078125 2898.227783203125 -3866.000244140625 2889.6162109375 -3866.000244140625 2881 C -3866.000244140625 2872.3837890625 -3865.132080078125 2863.772216796875 -3863.420166015625 2855.40478515625 C -3861.75146484375 2847.250732421875 -3859.26171875 2839.22998046875 -3856.02001953125 2831.5654296875 C -3852.83740234375 2824.041015625 -3848.897705078125 2816.782958984375 -3844.310546875 2809.992919921875 C -3839.767333984375 2803.26806640625 -3834.5498046875 2796.944091796875 -3828.802734375 2791.197021484375 C -3823.05615234375 2785.4501953125 -3816.732421875 2780.232421875 -3810.007080078125 2775.689208984375 C -3803.217529296875 2771.102294921875 -3795.95947265625 2767.16259765625 -3788.434326171875 2763.979736328125 C -3780.77001953125 2760.738037109375 -3772.749267578125 2758.248291015625 -3764.594970703125 2756.57958984375 C -3756.227783203125 2754.86767578125 -3747.6162109375 2753.99951171875 -3739 2753.99951171875 C -3730.3837890625 2753.99951171875 -3721.772216796875 2754.86767578125 -3713.40478515625 2756.57958984375 C -3705.2509765625 2758.248291015625 -3697.230224609375 2760.738037109375 -3689.5654296875 2763.979736328125 C -3682.041015625 2767.162353515625 -3674.782958984375 2771.10205078125 -3667.99267578125 2775.689208984375 C -3661.267578125 2780.232666015625 -3654.94384765625 2785.4501953125 -3649.197021484375 2791.197021484375 C -3643.449951171875 2796.944091796875 -3638.232421875 2803.26806640625 -3633.689208984375 2809.992919921875 C -3629.10205078125 2816.782958984375 -3625.162353515625 2824.041015625 -3621.979736328125 2831.5654296875 C -3618.738037109375 2839.230224609375 -3616.248291015625 2847.2509765625 -3614.57958984375 2855.40478515625 C -3612.867431640625 2863.7724609375 -3611.99951171875 2872.3837890625 -3611.99951171875 2881 C -3611.99951171875 2889.6162109375 -3612.867431640625 2898.2275390625 -3614.57958984375 2906.594970703125 C -3616.248291015625 2914.749267578125 -3618.738037109375 2922.77001953125 -3621.979736328125 2930.434326171875 C -3625.16259765625 2937.959228515625 -3629.10205078125 2945.21728515625 -3633.689208984375 2952.007080078125 C -3638.232666015625 2958.732421875 -3643.4501953125 2965.05615234375 -3649.197021484375 2970.802734375 C -3654.94384765625 2976.549560546875 -3661.267578125 2981.76708984375 -3667.99267578125 2986.310546875 C -3674.78271484375 2990.897705078125 -3682.041015625 2994.83740234375 -3689.5654296875 2998.02001953125 C -3697.230224609375 3001.26171875 -3705.2509765625 3003.75146484375 -3713.40478515625 3005.420166015625 C -3721.7724609375 3007.13232421875 -3730.3837890625 3008.000244140625 -3739 3008.000244140625 Z M -3739 2796.000244140625 C -3785.868896484375 2796.000244140625 -3823.99951171875 2834.131103515625 -3823.99951171875 2881 C -3823.99951171875 2927.868896484375 -3785.868896484375 2965.99951171875 -3739 2965.99951171875 C -3692.130859375 2965.99951171875 -3654.000244140625 2927.868896484375 -3654.000244140625 2881 C -3654.000244140625 2834.131103515625 -3692.130859375 2796.000244140625 -3739 2796.000244140625 Z" stroke="none" fill="#fff"/>
    </g>
    <circle id="Ellipse_44" data-name="Ellipse 44" cx="29" cy="29" r="29" transform="translate(305 53)" fill="#fff"/>
    <g id="fleches" transform="translate(-917.973 -196.773)">
      <path id="Tracé_8" data-name="Tracé 8" d="M6742.867,10573l-10.5,10.5,10.5,10.5" transform="translate(-9437.478 7116.613) rotate(-90)" fill="none" stroke="#ff4040" stroke-width="5"/>
      <path id="Tracé_26" data-name="Tracé 26" d="M6742.867,10573l-10.5,10.5,10.5,10.5" transform="matrix(-0.259, -0.966, 0.966, -0.259, -7330.729, 9649.245)" fill="none" stroke="#ff4040" stroke-width="3" opacity="0.7"/>
      <path id="Tracé_27" data-name="Tracé 27" d="M6742.867,10573l-10.5,10.5,10.5,10.5" transform="matrix(-0.469, -0.883, 0.883, -0.469, -5026.932, 11338.608)" fill="none" stroke="#ff4040" stroke-width="1" opacity="0.4"/>
    </g>
    <g id="fleches-2" data-name="fleches" transform="matrix(-0.946, -0.326, 0.326, -0.946, 1393.266, 956.327)">
      <path id="Tracé_8-2" data-name="Tracé 8" d="M6742.867,10573l-10.5,10.5,10.5,10.5" transform="translate(-9437.478 7116.613) rotate(-90)" fill="none" stroke="#ff4040" stroke-width="5"/>
      <path id="Tracé_26-2" data-name="Tracé 26" d="M6742.867,10573l-10.5,10.5,10.5,10.5" transform="matrix(-0.259, -0.966, 0.966, -0.259, -7330.729, 9649.245)" fill="none" stroke="#ff4040" stroke-width="3" opacity="0.7"/>
      <path id="Tracé_27-2" data-name="Tracé 27" d="M6742.867,10573l-10.5,10.5,10.5,10.5" transform="matrix(-0.469, -0.883, 0.883, -0.469, -5026.932, 11338.608)" fill="none" stroke="#ff4040" stroke-width="1" opacity="0.4"/>
    </g>
  </g>
</svg>
