<svg xmlns="http://www.w3.org/2000/svg" width="25.853" height="46.99" viewBox="0 0 25.853 46.99"><path d="M316.331,94.735a5.083,5.083,0,0,0,5.078-5.078V52.823a5.083,5.083,0,0,0-5.078-5.078h-15.7a5.083,5.083,0,0,0-5.078,5.078V89.657a5.083,5.083,0,0,0,5.078,5.078Zm-19.666-5.078V52.823a3.972,3.972,0,0,1,3.968-3.968h15.7a3.972,3.972,0,0,1,3.968,3.968V89.657a3.972,3.972,0,0,1-3.968,3.968h-15.7A3.972,3.972,0,0,1,296.665,89.657Z" transform="translate(-295.555 -47.745)" fill="#fff"/><path d="M540.993,950.6a1.911,1.911,0,1,0,1.91,1.911A1.911,1.911,0,0,0,540.993,950.6Zm0,2.988a1.077,1.077,0,1,1,1.077-1.077A1.076,1.076,0,0,1,540.993,953.583Z" transform="translate(-528.099 -910.998)" fill="#fff"/><rect width="0.637" height="7.645" rx="0.319" transform="translate(9.079 4.596) rotate(-90)" fill="#fff"/></svg>