<svg xmlns="http://www.w3.org/2000/svg" width="226.051" height="410.858" viewBox="0 0 226.051 410.858"><g transform="translate(-846.544 -496.187)"><g transform="translate(846.544 496.187)"><rect width="402" height="220" rx="54" transform="translate(3.409 405.999) rotate(-90)"/><path d="M477.21,458.6a44.448,44.448,0,0,0,44.4-44.4V92.142a44.448,44.448,0,0,0-44.4-44.4H339.952a44.448,44.448,0,0,0-44.4,44.4V414.207a44.448,44.448,0,0,0,44.4,44.4Zm-171.948-44.4V92.142a34.731,34.731,0,0,1,34.691-34.691H477.21A34.731,34.731,0,0,1,511.9,92.142V414.207A34.731,34.731,0,0,1,477.21,448.9H339.952A34.731,34.731,0,0,1,305.261,414.207Z" transform="translate(-295.555 -47.745)" fill="#ff4040"/><path d="M555.752,950.6a16.706,16.706,0,1,0,16.7,16.708A16.705,16.705,0,0,0,555.752,950.6Zm0,26.123a9.417,9.417,0,1,1,9.415-9.415A9.4,9.4,0,0,1,555.752,976.718Z" transform="translate(-443.016 -604.371)" fill="#ff4040"/><rect width="9" height="64" rx="4.5" transform="translate(81.409 42.999) rotate(-90)" fill="#ff4040"/></g><g transform="translate(890.722 619.367)"><path d="M106.246,108.891c7.044-6.053,6.053-26.3,5.278-42.568-.163-3.329-.31-6.4-.378-9.023a8.654,8.654,0,0,0-8.962-8.228,9.293,9.293,0,0,0-5.7,1.922,9.736,9.736,0,0,0-8.527-4.54,10.432,10.432,0,0,0-5.871,1.763,9.518,9.518,0,0,0-8.777-5.383,9.95,9.95,0,0,0-5.051,1.354l-.049-29.2A9.555,9.555,0,1,0,49.1,14.716c0,.163,0,.329,0,.492V65.089c0,6.511-1.052,9.257-1.676,9.859s-2.678,2.6-7.324-.136c-2.05-1.211-3.927-2.459-5.675-3.617a24.429,24.429,0,0,0-12.307-5.531C9.85,65.664,7.7,71.569,7.512,75.088c-.318,6.053,4.9,6.318,7.7,6.465a7.461,7.461,0,0,1,4.01.844,55.917,55.917,0,0,1,4.646,5.576,83.313,83.313,0,0,0,14.6,15.7,97.273,97.273,0,0,1,14.887,13.241v8H47.743a2.272,2.272,0,0,0-2.27,2.27V157.4a2.272,2.272,0,0,0,2.27,2.27h59.491a2.272,2.272,0,0,0,2.27-2.27V127.212a2.272,2.272,0,0,0-2.27-2.27h-6.008C101.01,121.28,101.184,113.249,106.246,108.891Zm-1.282,46.238H50.012v-25.65h54.951Zm-47.07-30.186v-8.4c0-3.961-16.574-16.4-16.744-16.521A80.3,80.3,0,0,1,27.487,85.208,55.294,55.294,0,0,0,22.3,79.045a10.453,10.453,0,0,0-6.81-2c-3.488-.185-3.477-.378-3.4-1.691.227-4.237,5.6-5.126,10.075-5.126A22.288,22.288,0,0,1,31.948,75c1.8,1.2,3.745,2.489,5.875,3.745,6.613,3.908,10.85,1.354,12.783-.507,2.032-1.96,3.061-6.378,3.061-13.128V15.227a5.213,5.213,0,0,1,5.017-5.372A5.144,5.144,0,0,1,63.7,15.06l.083,52.352a2.272,2.272,0,0,0,2.27,2.27h0a2.272,2.272,0,0,0,2.27-2.27h0v-15.6a5.062,5.062,0,0,1,10.025-.14l.083,16.517a2.272,2.272,0,0,0,2.27,2.27h0a2.272,2.272,0,0,0,2.27-2.27h0V54.8c0-2.054,2.3-3.783,5.013-3.783A4.588,4.588,0,0,1,92.993,54.7l.246,16.533a2.27,2.27,0,0,0,2.27,2.236h0A2.273,2.273,0,0,0,97.76,71.2V57.492a4.472,4.472,0,0,1,8.853-.091c.057,2.648.208,5.769.378,9.14.666,13.661,1.661,34.3-3.7,38.906-6.484,5.565-6.878,14.94-6.636,19.495Z" transform="translate(5.576)" fill="#ff4040"/><path d="M15.782,56.877h.042a2.271,2.271,0,0,0,1.748-.866l7.215-9.22a2.27,2.27,0,1,0-3.575-2.8h0l-3.4,4.339a35.49,35.49,0,0,1,21.186-32l-2.724,5.554a2.27,2.27,0,1,0,4.056,2.039l.023-.045L45.726,12.9a2.269,2.269,0,0,0-1.04-3.038,2.169,2.169,0,0,0-.4-.151l-11.3-3.08A2.271,2.271,0,0,0,31.716,11l.076.019L36.88,12.4a40.257,40.257,0,0,0-23.588,35.88L9.479,43.9a2.27,2.27,0,0,0-3.428,2.977h0L14.068,56.1A2.27,2.27,0,0,0,15.782,56.877Z" transform="translate(0 3.483)" fill="#ff4040"/></g></g></svg>