<svg xmlns="http://www.w3.org/2000/svg" width="410.858" height="226.051" viewBox="0 0 410.858 226.051">
  <g id="Groupe_77" data-name="Groupe 77" transform="translate(-754.141 -518.591)">
    <g id="smartphone" transform="translate(1164.999 518.591) rotate(90)">
      <rect id="Rectangle_76" data-name="Rectangle 76" width="402" height="220" rx="54" transform="translate(3.409 405.999) rotate(-90)"/>
      <path id="Tracé_10" data-name="Tracé 10" d="M477.21,458.6a44.448,44.448,0,0,0,44.4-44.4V92.142a44.448,44.448,0,0,0-44.4-44.4H339.952a44.448,44.448,0,0,0-44.4,44.4V414.207a44.448,44.448,0,0,0,44.4,44.4Zm-171.948-44.4V92.142a34.731,34.731,0,0,1,34.691-34.691H477.21A34.731,34.731,0,0,1,511.9,92.142V414.207A34.731,34.731,0,0,1,477.21,448.9H339.952A34.731,34.731,0,0,1,305.261,414.207Z" transform="translate(-295.555 -47.745)" fill="#ff4040"/>
      <path id="Tracé_12" data-name="Tracé 12" d="M555.752,950.6a16.706,16.706,0,1,0,16.7,16.708A16.705,16.705,0,0,0,555.752,950.6Zm0,26.123a9.417,9.417,0,1,1,9.415-9.415A9.4,9.4,0,0,1,555.752,976.718Z" transform="translate(-443.016 -604.371)" fill="#ff4040"/>
      <rect id="Rectangle_63" data-name="Rectangle 63" width="9" height="64" rx="4.5" transform="translate(81.409 42.999) rotate(-90)" fill="#ff4040"/>
    </g>
    <g id="curseur" transform="translate(1076.401 632.515) rotate(180)">
      <g id="Rectangle_48" data-name="Rectangle 48" transform="translate(208.078 -9.086)" fill="#ff4040" stroke="#ff4040" stroke-width="1">
        <rect width="15" height="20" stroke="none"/>
        <rect x="0.5" y="0.5" width="14" height="19" fill="none"/>
      </g>
      <g id="Rectangle_1" data-name="Rectangle 1" transform="translate(0 10.965) rotate(-90)" fill="none" stroke="#ff4040" stroke-width="1">
        <rect width="20.109" height="223.479" stroke="none"/>
        <rect x="0.5" y="0.5" width="19.109" height="222.479" fill="none"/>
      </g>
      <rect id="Rectangle_2" data-name="Rectangle 2" width="57.777" height="19.108" transform="translate(204.364 30.103) rotate(-90)" fill="#ff4040"/>
    </g>
  </g>
</svg>
