<svg xmlns="http://www.w3.org/2000/svg" width="410.858" height="226.051" viewBox="0 0 410.858 226.051">
  <g id="Groupe_81" data-name="Groupe 81" transform="translate(-754.141 -518.591)">
    <g id="smartphone" transform="translate(1164.999 518.591) rotate(90)">
      <rect id="Rectangle_76" data-name="Rectangle 76" width="402" height="220" rx="54" transform="translate(3.409 405.999) rotate(-90)"/>
      <path id="Tracé_10" data-name="Tracé 10" d="M477.21,458.6a44.448,44.448,0,0,0,44.4-44.4V92.142a44.448,44.448,0,0,0-44.4-44.4H339.952a44.448,44.448,0,0,0-44.4,44.4V414.207a44.448,44.448,0,0,0,44.4,44.4Zm-171.948-44.4V92.142a34.731,34.731,0,0,1,34.691-34.691H477.21A34.731,34.731,0,0,1,511.9,92.142V414.207A34.731,34.731,0,0,1,477.21,448.9H339.952A34.731,34.731,0,0,1,305.261,414.207Z" transform="translate(-295.555 -47.745)" fill="#ff4040"/>
      <path id="Tracé_12" data-name="Tracé 12" d="M555.752,950.6a16.706,16.706,0,1,0,16.7,16.708A16.705,16.705,0,0,0,555.752,950.6Zm0,26.123a9.417,9.417,0,1,1,9.415-9.415A9.4,9.4,0,0,1,555.752,976.718Z" transform="translate(-443.016 -604.371)" fill="#ff4040"/>
      <rect id="Rectangle_63" data-name="Rectangle 63" width="9" height="64" rx="4.5" transform="translate(81.409 42.999) rotate(-90)" fill="#ff4040"/>
    </g>
    <g id="pointeur" transform="translate(76.294 91.714)">
      <path id="Tracé_22" data-name="Tracé 22" d="M0,0,21.6,21.6,0,43.2" transform="translate(834.978 521.103) rotate(-135)" fill="none" stroke="#ff4040" stroke-width="2"/>
      <path id="Tracé_25" data-name="Tracé 25" d="M0,0,21.6,21.6,0,43.2" transform="translate(933.251 558.288) rotate(45)" fill="none" stroke="#ff4040" stroke-width="2"/>
      <path id="Tracé_23" data-name="Tracé 23" d="M0,0,21.6,21.6,0,43.2" transform="translate(902.707 490.559) rotate(-45)" fill="none" stroke="#ff4040" stroke-width="2"/>
      <path id="Tracé_24" data-name="Tracé 24" d="M0,0,21.6,21.6,0,43.2" transform="translate(865.522 588.832) rotate(135)" fill="none" stroke="#ff4040" stroke-width="2"/>
      <g id="croix" transform="translate(-16.77 -6.19)">
        <line id="Ligne_70" data-name="Ligne 70" y2="36.774" transform="translate(900.682 527.294)" fill="none" stroke="#ff4040" stroke-width="2"/>
        <line id="Ligne_71" data-name="Ligne 71" y2="36.774" transform="translate(919.069 545.682) rotate(90)" fill="none" stroke="#ff4040" stroke-width="2" opacity="0.9"/>
      </g>
    </g>
  </g>
</svg>
