<svg xmlns="http://www.w3.org/2000/svg" width="129" height="128" viewBox="0 0 129 128">
  <g id="Groupe_118" data-name="Groupe 118" transform="translate(-894 -733)">
    <g id="Groupe_114" data-name="Groupe 114">
      <g id="Ellipse_80" data-name="Ellipse 80" transform="translate(911 748)" fill="none" stroke="#ff4040" stroke-width="1">
        <ellipse cx="48.5" cy="48" rx="48.5" ry="48" stroke="none"/>
        <ellipse cx="48.5" cy="48" rx="48" ry="47.5" fill="none"/>
      </g>
    </g>
    <g id="Ellipse_81" data-name="Ellipse 81" transform="translate(894 733)" fill="none" stroke="#ff4040" stroke-width="0.5">
      <ellipse cx="64.5" cy="64" rx="64.5" ry="64" stroke="none"/>
      <ellipse cx="64.5" cy="64" rx="64.25" ry="63.75" fill="none"/>
    </g>
    <g id="Groupe_117" data-name="Groupe 117">
      <g id="Groupe_113" data-name="Groupe 113">
        <g id="Ellipse_79" data-name="Ellipse 79" transform="translate(926 762)" fill="none" stroke="#ff4040" stroke-width="1">
          <circle cx="34" cy="34" r="34" stroke="none"/>
          <circle cx="34" cy="34" r="33.5" fill="none"/>
        </g>
        <g id="Groupe_112" data-name="Groupe 112">
          <g id="smartphone" transform="translate(933.78 748.75)">
            <rect id="Rectangle_165" data-name="Rectangle 165" width="51.739" height="95.229" rx="12" transform="translate(0.354 0.05)"/>
            <path id="Tracé_10" data-name="Tracé 10" d="M42.14,95.31a10.311,10.311,0,0,0,10.3-10.3V10.3A10.311,10.311,0,0,0,42.14,0H10.3A10.311,10.311,0,0,0,0,10.3V85.011a10.311,10.311,0,0,0,10.3,10.3ZM2.252,85.011V10.3A8.057,8.057,0,0,1,10.3,2.252H42.14A8.057,8.057,0,0,1,50.187,10.3V85.011a8.057,8.057,0,0,1-8.047,8.047H10.3A8.057,8.057,0,0,1,2.252,85.011Z" transform="translate(0 0)" fill="#ff4040"/>
            <path id="Tracé_12" data-name="Tracé 12" d="M3.866,0A3.875,3.875,0,1,0,7.741,3.876,3.875,3.875,0,0,0,3.866,0Zm0,6.06A2.185,2.185,0,1,1,6.05,3.876,2.182,2.182,0,0,1,3.866,6.06Z" transform="translate(22.286 80.316)" fill="#ff4040"/>
            <rect id="Rectangle_63" data-name="Rectangle 63" width="2.088" height="14.847" rx="1.044" transform="translate(18.885 9.975) rotate(-90)" fill="#ff4040"/>
            <path id="Tracé_60" data-name="Tracé 60" d="M42.14,95.31a10.311,10.311,0,0,0,10.3-10.3V10.3A10.311,10.311,0,0,0,42.14,0H10.3A10.311,10.311,0,0,0,0,10.3V85.011a10.311,10.311,0,0,0,10.3,10.3ZM2.252,85.011V10.3A8.057,8.057,0,0,1,10.3,2.252H42.14A8.057,8.057,0,0,1,50.187,10.3V85.011a8.057,8.057,0,0,1-8.047,8.047H10.3A8.057,8.057,0,0,1,2.252,85.011Z" transform="translate(0 0)" fill="#ff4040"/>
          </g>
          <circle id="Ellipse_78" data-name="Ellipse 78" cx="16" cy="16" r="16" transform="translate(944 780)" fill="#ff4040"/>
        </g>
      </g>
    </g>
  </g>
</svg>
