<svg xmlns="http://www.w3.org/2000/svg" width="226.051" height="410.999" viewBox="0 0 226.051 410.999"><g transform="translate(-846.474 -462.117)"><g transform="translate(846.474 462.117)"><rect width="407" height="223" rx="54" transform="translate(0.409 410.999) rotate(-90)"/><path d="M477.21,458.6a44.448,44.448,0,0,0,44.4-44.4V92.142a44.448,44.448,0,0,0-44.4-44.4H339.952a44.448,44.448,0,0,0-44.4,44.4V414.207a44.448,44.448,0,0,0,44.4,44.4Zm-171.948-44.4V92.142a34.731,34.731,0,0,1,34.691-34.691H477.21A34.731,34.731,0,0,1,511.9,92.142V414.207A34.731,34.731,0,0,1,477.21,448.9H339.952A34.731,34.731,0,0,1,305.261,414.207Z" transform="translate(-295.555 -47.745)" fill="#ff4040"/><path d="M555.752,950.6a16.706,16.706,0,1,0,16.7,16.708A16.705,16.705,0,0,0,555.752,950.6Zm0,26.123a9.417,9.417,0,1,1,9.415-9.415A9.4,9.4,0,0,1,555.752,976.718Z" transform="translate(-443.016 -604.371)" fill="#ff4040"/><rect width="9" height="64" rx="4.5" transform="translate(81.409 42.999) rotate(-90)" fill="#ff4040"/></g><g transform="translate(916.362 625.453)"><path d="M0,88.57V.43A45.827,45.827,0,0,1,12,.361V88.639A45.827,45.827,0,0,1,0,88.57Z" transform="translate(36.638 -0.453)" fill="#ff4040"/><path d="M.361,12A45.821,45.821,0,0,1,.43,0H88.57a45.847,45.847,0,0,1,.069,12Z" transform="translate(-0.362 39.547)" fill="#ff4040"/><g transform="translate(-21.362 -20.453)" fill="none"><path d="M65.5,131a65.985,65.985,0,0,1-13.2-1.331,65.141,65.141,0,0,1-23.421-9.856A65.7,65.7,0,0,1,5.147,91,65.178,65.178,0,0,1,1.331,78.7a66.147,66.147,0,0,1,0-26.4,65.133,65.133,0,0,1,9.856-23.421A65.689,65.689,0,0,1,40,5.147,65.181,65.181,0,0,1,52.3,1.331a66.142,66.142,0,0,1,26.4,0,65.138,65.138,0,0,1,23.421,9.856A65.7,65.7,0,0,1,125.853,40a65.183,65.183,0,0,1,3.817,12.3,66.142,66.142,0,0,1,0,26.4,65.137,65.137,0,0,1-9.856,23.421A65.692,65.692,0,0,1,91,125.853a65.186,65.186,0,0,1-12.3,3.817A65.989,65.989,0,0,1,65.5,131Zm0-109.338A43.838,43.838,0,1,0,109.338,65.5,43.888,43.888,0,0,0,65.5,21.662Z" stroke="none"/><path d="M 65.49983978271484 130 C 69.87676239013672 130 74.25070953369141 129.5591278076172 78.50016021728516 128.6896514892578 C 82.64103698730469 127.8422164916992 86.71408843994141 126.5778732299805 90.60617828369141 124.9317626953125 C 94.42738342285156 123.3154907226562 98.11345672607422 121.3147125244141 101.5619659423828 118.9850387573242 C 104.9776153564453 116.6774368286133 108.1895065307617 114.0273666381836 111.1084365844727 111.1084213256836 C 114.027458190918 108.1895065307617 116.6775283813477 104.9776000976562 118.9850158691406 101.5618743896484 C 121.3145065307617 98.11390686035156 123.3152694702148 94.4278564453125 124.9317626953125 90.60612487792969 C 126.5779418945312 86.71407318115234 127.8422698974609 82.64102172851562 128.6896209716797 78.50010681152344 C 129.5591278076172 74.25080108642578 130 69.87696075439453 130 65.50012969970703 C 130 61.12323760986328 129.5591278076172 56.74932861328125 128.6896362304688 52.49992752075195 C 127.8422393798828 48.35909271240234 126.5778884887695 44.28601837158203 124.9317626953125 40.3939094543457 C 123.3155975341797 36.57294464111328 121.3148193359375 32.88692855834961 118.9850158691406 29.43821907043457 C 116.6772689819336 26.02229118347168 114.0271987915039 22.81034469604492 111.1084365844727 19.89159965515137 C 108.189453125 16.97272682189941 104.9775619506836 14.32265472412109 101.5619964599609 12.01500034332275 C 98.11312866210938 9.685163497924805 94.42705535888672 7.684400081634521 90.60623931884766 6.068272590637207 C 86.71417999267578 4.422272682189941 82.64110565185547 3.157927274703979 78.50022125244141 2.310381889343262 C 74.25014495849609 1.440872669219971 69.87618255615234 1 65.49983978271484 1 C 61.12356185913086 1 56.74976348876953 1.440872669219971 52.49996185302734 2.310363531112671 C 48.35854721069336 3.157927274703979 44.28549194335938 4.422272682189941 40.3939094543457 6.068272590637207 C 36.57268905639648 7.684418201446533 32.88656234741211 9.685181617736816 29.43790817260742 12.01498222351074 C 26.02227210998535 14.32256317138672 22.8104190826416 16.97263717651367 19.89156341552734 19.89159965515137 C 16.97301864624023 22.81003570556641 14.32296371459961 26.02198219299316 12.01501846313477 29.43821907043457 C 9.685309410095215 32.88676452636719 7.68449068069458 36.57279968261719 6.068127155303955 40.39389038085938 C 4.421945571899414 44.28603744506836 3.157618284225464 48.35909271240234 2.310272693634033 52.49985504150391 C 1.440836310386658 56.74998092651367 1 61.12390899658203 1 65.50012969970703 C 1 69.87628936767578 1.440836310386658 74.25012969970703 2.310254573822021 78.50010681152344 C 3.157436370849609 82.64028930664062 4.42176342010498 86.71334838867188 6.068127155303955 90.60610961914062 C 7.684472560882568 94.42752838134766 9.685291290283203 98.11356353759766 12.01503658294678 101.5619277954102 C 14.32214546203613 104.9772567749023 16.97218132019043 108.1891632080078 19.89159965515137 111.1084747314453 C 22.8103084564209 114.0273971557617 26.02214622497559 116.6774749755859 29.43790817260742 118.9850158691406 C 32.88656234741211 121.3148345947266 36.57268905639648 123.3155975341797 40.39394378662109 124.9317626953125 C 44.28558349609375 126.5778732299805 48.35861968994141 127.8422164916992 52.49994659423828 128.6896362304688 C 56.74918365478516 129.5591278076172 61.12298202514648 130 65.49983978271484 130 M 65.49983978271484 20.66174507141113 C 90.22381591796875 20.66174507141113 110.3382339477539 40.77616500854492 110.3382339477539 65.50012969970703 C 110.3382339477539 90.22396087646484 90.22381591796875 110.3382720947266 65.49983978271484 110.3382720947266 C 40.77598190307617 110.3382720947266 20.66165542602539 90.22396087646484 20.66165542602539 65.50012969970703 C 20.66165542602539 40.77616500854492 40.77598190307617 20.66174507141113 65.49983978271484 20.66174507141113 M 65.49983978271484 131 C 61.05609130859375 131 56.61483764648438 130.5523681640625 52.29947280883789 129.6693420410156 C 48.09389114379883 128.8087615966797 43.95703506469727 127.5246887207031 40.0043830871582 125.8527603149414 C 36.12316513061523 124.2112350463867 32.37985610961914 122.179328918457 28.87810897827148 119.8136520385742 C 25.40970993041992 117.4705276489258 22.1481819152832 114.7794876098633 19.18447303771973 111.815544128418 C 16.22054481506348 108.8517303466797 13.52949047088623 105.5903091430664 11.18638229370117 102.1216888427734 C 8.820581436157227 98.61996459960938 6.788672924041748 94.87665557861328 5.147127151489258 90.99567413330078 C 3.475436449050903 87.04299926757812 2.191145420074463 82.90627288818359 1.33056366443634 78.70058441162109 C 0.4477636218070984 74.38521575927734 0 69.94385528564453 0 65.50012969970703 C 0 61.05625534057617 0.4477636218070984 56.61491012573242 1.33056366443634 52.29943466186523 C 2.191145420074463 48.09396362304688 3.475199937820435 43.95734405517578 5.147127151489258 40.00434494018555 C 6.788672924041748 36.12369155883789 8.820581436157227 32.38040161132812 11.18638229370117 28.87841796875 C 13.52949047088623 25.4101448059082 16.22032737731934 22.14850997924805 19.18447303771973 19.18447303771973 C 22.1481819152832 16.22065544128418 25.40970993041992 13.52958202362061 28.87810897827148 11.18636322021484 C 32.37985610961914 8.820691108703613 36.12316513061523 6.788781642913818 40.0043830871582 5.147254467010498 C 43.95703506469727 3.475418090820312 48.09389114379883 2.191363573074341 52.29947280883789 1.330672740936279 C 56.61483764648438 0.4477636218070984 61.05609130859375 0 65.49983978271484 0 C 69.94380187988281 0 74.38505554199219 0.4477636218070984 78.70065307617188 1.330672740936279 C 82.90576171875 2.191363573074341 87.04261779785156 3.475418090820312 90.99574279785156 5.147254467010498 C 94.87638092041016 6.788672924041748 98.61968994140625 8.820581436157227 102.1217803955078 11.18636322021484 C 105.5901794433594 13.52970886230469 108.8516006469727 16.22065544128418 111.8155288696289 19.18447303771973 C 114.7795791625977 22.14850997924805 117.4705276489258 25.4101448059082 119.8136367797852 28.87841796875 C 122.1794357299805 32.38040161132812 124.2113418579102 36.12369155883789 125.8527603149414 40.00434494018555 C 127.5246887207031 43.95745468139648 128.8087463378906 48.09420013427734 129.6693267822266 52.29943466186523 C 130.5523681640625 56.61501693725586 131 61.05625534057617 131 65.50012969970703 C 131 69.94385528564453 130.5523681640625 74.38510894775391 129.6693267822266 78.70058441162109 C 128.8087463378906 82.90614318847656 127.5246887207031 87.04276275634766 125.8527603149414 90.99567413330078 C 124.2112197875977 94.87665557861328 122.1794357299805 98.61996459960938 119.8136367797852 102.1216888427734 C 117.4703979492188 105.5903091430664 114.7794570922852 108.8517303466797 111.8155288696289 111.815544128418 C 108.8516006469727 114.7794876098633 105.5901794433594 117.4704208374023 102.1217803955078 119.8136520385742 C 98.61981964111328 122.1794357299805 94.87638092041016 124.2113418579102 90.99574279785156 125.8527603149414 C 87.04261779785156 127.5246887207031 82.90576171875 128.8087615966797 78.70065307617188 129.6693420410156 C 74.38505554199219 130.5523681640625 69.94380187988281 131 65.49983978271484 131 Z M 65.49983978271484 21.66174507141113 C 41.32745361328125 21.66174507141113 21.66165542602539 41.32763671875 21.66165542602539 65.50012969970703 C 21.66165542602539 89.67259979248047 41.32745361328125 109.3382720947266 65.49983978271484 109.3382720947266 C 89.67243957519531 109.3382720947266 109.3382339477539 89.67259979248047 109.3382339477539 65.50012969970703 C 109.3382339477539 41.32763671875 89.67243957519531 21.66174507141113 65.49983978271484 21.66174507141113 Z" stroke="none" fill="#ff4040"/></g><circle cx="25" cy="25" r="25" transform="translate(18.638 19.547)" fill="#ff4040"/><g transform="translate(29.638 -25.453)" fill="#ff4040" stroke="#fff" stroke-width="1"><ellipse cx="14.5" cy="15" rx="14.5" ry="15" stroke="none"/><ellipse cx="14.5" cy="15" rx="14" ry="14.5" fill="none"/></g></g></g></svg>