<svg xmlns="http://www.w3.org/2000/svg" width="52.439" height="95.31" viewBox="0 0 52.439 95.31"><g transform="translate(-933.78 -748.75)"><g transform="translate(933.78 748.75)"><rect width="51.739" height="95.229" rx="12" transform="translate(0.354 0.05)"/><path d="M42.14,95.31a10.311,10.311,0,0,0,10.3-10.3V10.3A10.311,10.311,0,0,0,42.14,0H10.3A10.311,10.311,0,0,0,0,10.3V85.011a10.311,10.311,0,0,0,10.3,10.3ZM2.252,85.011V10.3A8.057,8.057,0,0,1,10.3,2.252H42.14A8.057,8.057,0,0,1,50.187,10.3V85.011a8.057,8.057,0,0,1-8.047,8.047H10.3A8.057,8.057,0,0,1,2.252,85.011Z" transform="translate(0 0)" fill="#ff4040"/><path d="M3.866,0A3.875,3.875,0,1,0,7.741,3.876,3.875,3.875,0,0,0,3.866,0Zm0,6.06A2.185,2.185,0,1,1,6.05,3.876,2.182,2.182,0,0,1,3.866,6.06Z" transform="translate(22.286 80.316)" fill="#ff4040"/><rect width="2.088" height="14.847" rx="1.044" transform="translate(18.885 9.975) rotate(-90)" fill="#ff4040"/><path d="M42.14,95.31a10.311,10.311,0,0,0,10.3-10.3V10.3A10.311,10.311,0,0,0,42.14,0H10.3A10.311,10.311,0,0,0,0,10.3V85.011a10.311,10.311,0,0,0,10.3,10.3ZM2.252,85.011V10.3A8.057,8.057,0,0,1,10.3,2.252H42.14A8.057,8.057,0,0,1,50.187,10.3V85.011a8.057,8.057,0,0,1-8.047,8.047H10.3A8.057,8.057,0,0,1,2.252,85.011Z" transform="translate(0 0)" fill="#ff4040"/></g><path d="M586.37,361.261a12.869,12.869,0,0,1-.2-25.736,1.331,1.331,0,1,1,.04,2.662,10.206,10.206,0,1,0,10.32,11.147,1.331,1.331,0,1,1,2.652.243,12.87,12.87,0,0,1-12.814,11.684Z" transform="translate(373.727 447.8)" fill="#ff4040"/></g></svg>